{
	"asset":{
		"generator":"Khronos glTF Blender I/O v4.0.44",
		"version":"2.0"
	},
	"scene":0,
	"scenes":[
		{
			"name":"Scene",
			"nodes":[
				0,
				1,
				2
			]
		}
	],
	"nodes":[
		{
			"mesh":0,
			"name":"Project IsLand",
			"translation":[
				0,
				-0.002740204334259033,
				0
			]
		},
		{
			"mesh":1,
			"name":"Project Building",
			"translation":[
				-0.19100633263587952,
				0.16850557923316956,
				-0.008950510062277317
			]
		},
		{
			"mesh":2,
			"name":"Retopo_Text.002",
			"rotation":[
				0,
				-0.9469505548477173,
				0.3213796317577362,
				2.972633694753313e-07
			],
			"translation":[
				-0.18958814442157745,
				0.5177255868911743,
				-0.08362436294555664
			]
		}
	],
	"materials":[
		{
			"doubleSided":true,
			"name":"Master Pallet",
			"pbrMetallicRoughness":{
				"baseColorTexture":{
					"index":0
				},
				"metallicFactor":0,
				"roughnessFactor":0.5
			}
		},
		{
			"doubleSided":true,
			"name":"TEXT.001",
			"pbrMetallicRoughness":{
				"baseColorFactor":[
					0,
					0,
					0,
					1
				],
				"metallicFactor":0,
				"roughnessFactor":0.5
			}
		}
	],
	"meshes":[
		{
			"name":"Sphere.001",
			"primitives":[
				{
					"attributes":{
						"POSITION":0,
						"NORMAL":1,
						"TEXCOORD_0":2
					},
					"indices":3,
					"material":0
				}
			]
		},
		{
			"name":"Cube.001",
			"primitives":[
				{
					"attributes":{
						"POSITION":4,
						"NORMAL":5,
						"TEXCOORD_0":6
					},
					"indices":7,
					"material":0
				}
			]
		},
		{
			"name":"mesh.002",
			"primitives":[
				{
					"attributes":{
						"POSITION":8,
						"NORMAL":9
					},
					"indices":10,
					"material":1
				}
			]
		}
	],
	"textures":[
		{
			"sampler":0,
			"source":0
		}
	],
	"images":[
		{
			"mimeType":"image/png",
			"name":"256-Gradient",
			"uri":"256-Gradient.png"
		}
	],
	"accessors":[
		{
			"bufferView":0,
			"componentType":5126,
			"count":323,
			"max":[
				0.5937315225601196,
				0.22018584609031677,
				0.8314692974090576
			],
			"min":[
				-0.5937314033508301,
				0,
				-0.8314695954322815
			],
			"type":"VEC3"
		},
		{
			"bufferView":1,
			"componentType":5126,
			"count":323,
			"type":"VEC3"
		},
		{
			"bufferView":2,
			"componentType":5126,
			"count":323,
			"type":"VEC2"
		},
		{
			"bufferView":3,
			"componentType":5123,
			"count":1152,
			"type":"SCALAR"
		},
		{
			"bufferView":4,
			"componentType":5126,
			"count":42,
			"max":[
				0.14629694819450378,
				0.395317018032074,
				6.812482244988871e-10
			],
			"min":[
				-0.1462969183921814,
				-2.1799943183964388e-08,
				-0.1462969332933426
			],
			"type":"VEC3"
		},
		{
			"bufferView":5,
			"componentType":5126,
			"count":42,
			"type":"VEC3"
		},
		{
			"bufferView":6,
			"componentType":5126,
			"count":42,
			"type":"VEC2"
		},
		{
			"bufferView":7,
			"componentType":5123,
			"count":72,
			"type":"SCALAR"
		},
		{
			"bufferView":8,
			"componentType":5126,
			"count":1587,
			"max":[
				0.13079629838466644,
				0.0017593747470527887,
				0.01930994912981987
			],
			"min":[
				-0.09847480803728104,
				-0.0017588117625564337,
				-0.014370015822350979
			],
			"type":"VEC3"
		},
		{
			"bufferView":9,
			"componentType":5126,
			"count":1587,
			"type":"VEC3"
		},
		{
			"bufferView":10,
			"componentType":5123,
			"count":9462,
			"type":"SCALAR"
		}
	],
	"bufferViews":[
		{
			"buffer":0,
			"byteLength":3876,
			"byteOffset":0,
			"target":34962
		},
		{
			"buffer":0,
			"byteLength":3876,
			"byteOffset":3876,
			"target":34962
		},
		{
			"buffer":0,
			"byteLength":2584,
			"byteOffset":7752,
			"target":34962
		},
		{
			"buffer":0,
			"byteLength":2304,
			"byteOffset":10336,
			"target":34963
		},
		{
			"buffer":0,
			"byteLength":504,
			"byteOffset":12640,
			"target":34962
		},
		{
			"buffer":0,
			"byteLength":504,
			"byteOffset":13144,
			"target":34962
		},
		{
			"buffer":0,
			"byteLength":336,
			"byteOffset":13648,
			"target":34962
		},
		{
			"buffer":0,
			"byteLength":144,
			"byteOffset":13984,
			"target":34963
		},
		{
			"buffer":0,
			"byteLength":19044,
			"byteOffset":14128,
			"target":34962
		},
		{
			"buffer":0,
			"byteLength":19044,
			"byteOffset":33172,
			"target":34962
		},
		{
			"buffer":0,
			"byteLength":18924,
			"byteOffset":52216,
			"target":34963
		}
	],
	"samplers":[
		{
			"magFilter":9729,
			"minFilter":9987
		}
	],
	"buffers":[
		{
			"byteLength":71140,
			"uri":"projectIsland.bin"
		}
	]
}
