{
	"asset":{
		"generator":"Khronos glTF Blender I/O v4.0.44",
		"version":"2.0"
	},
	"scene":0,
	"scenes":[
		{
			"name":"Scene",
			"nodes":[
				0,
				1
			]
		}
	],
	"nodes":[
		{
			"mesh":0,
			"name":"train cabinet",
			"translation":[
				18.263336181640625,
				0.2297549545764923,
				0
			]
		},
		{
			"mesh":1,
			"name":"Train Engine",
			"scale":[
				1.5,
				1.5,
				1.5
			],
			"translation":[
				13.189534187316895,
				0.21669769287109375,
				0
			]
		}
	],
	"materials":[
		{
			"doubleSided":true,
			"name":"Master Pallet",
			"pbrMetallicRoughness":{
				"baseColorTexture":{
					"index":0
				},
				"metallicFactor":0,
				"roughnessFactor":0.5
			}
		}
	],
	"meshes":[
		{
			"name":"Plane.005",
			"primitives":[
				{
					"attributes":{
						"POSITION":0,
						"NORMAL":1,
						"TEXCOORD_0":2
					},
					"indices":3,
					"material":0
				}
			]
		},
		{
			"name":"Plane.006",
			"primitives":[
				{
					"attributes":{
						"POSITION":4,
						"NORMAL":5,
						"TEXCOORD_0":6
					},
					"indices":7,
					"material":0
				}
			]
		}
	],
	"textures":[
		{
			"sampler":0,
			"source":0
		}
	],
	"images":[
		{
			"mimeType":"image/png",
			"name":"256-Gradient",
			"uri":"256-Gradient.png"
		}
	],
	"accessors":[
		{
			"bufferView":0,
			"componentType":5126,
			"count":683,
			"max":[
				1.141668677330017,
				2.309938430786133,
				0.8884456157684326
			],
			"min":[
				-1.0265072584152222,
				-5.733820085396246e-09,
				-1.0778306722640991
			],
			"type":"VEC3"
		},
		{
			"bufferView":1,
			"componentType":5126,
			"count":683,
			"type":"VEC3"
		},
		{
			"bufferView":2,
			"componentType":5126,
			"count":683,
			"type":"VEC2"
		},
		{
			"bufferView":3,
			"componentType":5123,
			"count":1380,
			"type":"SCALAR"
		},
		{
			"bufferView":4,
			"componentType":5126,
			"count":1255,
			"max":[
				2.624518394470215,
				1.5513992309570312,
				0.570435643196106
			],
			"min":[
				-1.5925006866455078,
				0,
				-0.7070645093917847
			],
			"type":"VEC3"
		},
		{
			"bufferView":5,
			"componentType":5126,
			"count":1255,
			"type":"VEC3"
		},
		{
			"bufferView":6,
			"componentType":5126,
			"count":1255,
			"type":"VEC2"
		},
		{
			"bufferView":7,
			"componentType":5123,
			"count":4182,
			"type":"SCALAR"
		}
	],
	"bufferViews":[
		{
			"buffer":0,
			"byteLength":8196,
			"byteOffset":0,
			"target":34962
		},
		{
			"buffer":0,
			"byteLength":8196,
			"byteOffset":8196,
			"target":34962
		},
		{
			"buffer":0,
			"byteLength":5464,
			"byteOffset":16392,
			"target":34962
		},
		{
			"buffer":0,
			"byteLength":2760,
			"byteOffset":21856,
			"target":34963
		},
		{
			"buffer":0,
			"byteLength":15060,
			"byteOffset":24616,
			"target":34962
		},
		{
			"buffer":0,
			"byteLength":15060,
			"byteOffset":39676,
			"target":34962
		},
		{
			"buffer":0,
			"byteLength":10040,
			"byteOffset":54736,
			"target":34962
		},
		{
			"buffer":0,
			"byteLength":8364,
			"byteOffset":64776,
			"target":34963
		}
	],
	"samplers":[
		{
			"magFilter":9729,
			"minFilter":9987
		}
	],
	"buffers":[
		{
			"byteLength":73140,
			"uri":"train.bin"
		}
	]
}
