{
	"asset":{
		"generator":"Khronos glTF Blender I/O v4.0.44",
		"version":"2.0"
	},
	"scene":0,
	"scenes":[
		{
			"name":"Scene",
			"nodes":[
				0
			]
		}
	],
	"nodes":[
		{
			"mesh":0,
			"name":"Character"
		}
	],
	"materials":[
		{
			"doubleSided":true,
			"name":"SkinMat",
			"pbrMetallicRoughness":{
				"metallicFactor":0,
				"roughnessFactor":0.5
			}
		},
		{
			"doubleSided":true,
			"name":"GlassMat",
			"pbrMetallicRoughness":{
				"metallicFactor":0,
				"roughnessFactor":0.5
			}
		}
	],
	"meshes":[
		{
			"name":"Sphere.007",
			"primitives":[
				{
					"attributes":{
						"POSITION":0,
						"NORMAL":1,
						"TEXCOORD_0":2
					},
					"indices":3,
					"material":0
				},
				{
					"attributes":{
						"POSITION":4,
						"NORMAL":5,
						"TEXCOORD_0":6
					},
					"indices":7,
					"material":1
				}
			]
		}
	],
	"accessors":[
		{
			"bufferView":0,
			"componentType":5126,
			"count":369,
			"max":[
				0.3040337860584259,
				1.76446533203125,
				0.3040337860584259
			],
			"min":[
				-0.3040361702442169,
				7.550790570576282e-08,
				-0.3040361702442169
			],
			"type":"VEC3"
		},
		{
			"bufferView":1,
			"componentType":5126,
			"count":369,
			"type":"VEC3"
		},
		{
			"bufferView":2,
			"componentType":5126,
			"count":369,
			"type":"VEC2"
		},
		{
			"bufferView":3,
			"componentType":5123,
			"count":522,
			"type":"SCALAR"
		},
		{
			"bufferView":4,
			"componentType":5126,
			"count":128,
			"max":[
				0.15004640817642212,
				1.594787359237671,
				-0.2006792575120926
			],
			"min":[
				-0.1585720032453537,
				1.4947924613952637,
				-0.2824172079563141
			],
			"type":"VEC3"
		},
		{
			"bufferView":5,
			"componentType":5126,
			"count":128,
			"type":"VEC3"
		},
		{
			"bufferView":6,
			"componentType":5126,
			"count":128,
			"type":"VEC2"
		},
		{
			"bufferView":7,
			"componentType":5123,
			"count":192,
			"type":"SCALAR"
		}
	],
	"bufferViews":[
		{
			"buffer":0,
			"byteLength":4428,
			"byteOffset":0,
			"target":34962
		},
		{
			"buffer":0,
			"byteLength":4428,
			"byteOffset":4428,
			"target":34962
		},
		{
			"buffer":0,
			"byteLength":2952,
			"byteOffset":8856,
			"target":34962
		},
		{
			"buffer":0,
			"byteLength":1044,
			"byteOffset":11808,
			"target":34963
		},
		{
			"buffer":0,
			"byteLength":1536,
			"byteOffset":12852,
			"target":34962
		},
		{
			"buffer":0,
			"byteLength":1536,
			"byteOffset":14388,
			"target":34962
		},
		{
			"buffer":0,
			"byteLength":1024,
			"byteOffset":15924,
			"target":34962
		},
		{
			"buffer":0,
			"byteLength":384,
			"byteOffset":16948,
			"target":34963
		}
	],
	"buffers":[
		{
			"byteLength":17332,
			"uri":"Character.bin"
		}
	]
}
