{
	"asset":{
		"generator":"Khronos glTF Blender I/O v4.0.44",
		"version":"2.0"
	},
	"scene":0,
	"scenes":[
		{
			"name":"Scene",
			"nodes":[
				0,
				1,
				2,
				3,
				4,
				5,
				6,
				7,
				8,
				9,
				10,
				11,
				12,
				13,
				14,
				15
			]
		}
	],
	"nodes":[
		{
			"mesh":0,
			"name":"Circle.002",
			"translation":[
				-33.77532196044922,
				16.475658416748047,
				4.766621112823486
			]
		},
		{
			"mesh":1,
			"name":"Circle.003",
			"translation":[
				-33.77531433105469,
				22.190898895263672,
				4.766622066497803
			]
		},
		{
			"mesh":2,
			"name":"Project IsLand"
		},
		{
			"mesh":3,
			"name":"Project Building"
		},
		{
			"mesh":4,
			"name":"Retopo_Text.002",
			"rotation":[
				0,
				-0.9469505548477173,
				0.3213796317577362,
				2.972633694753313e-07
			]
		},
		{
			"mesh":5,
			"name":"Project IsLand.001",
			"translation":[
				-34.970184326171875,
				-0.07326507568359375,
				5.419889450073242
			]
		},
		{
			"mesh":6,
			"name":"Retopo_Text.001",
			"rotation":[
				0,
				-0.7071068286895752,
				0,
				0.7071068286895752
			]
		},
		{
			"mesh":7,
			"name":"Cube",
			"translation":[
				-8.825571060180664,
				-0.1242055892944336,
				-32.60458755493164
			]
		},
		{
			"mesh":8,
			"name":"Cube.001",
			"rotation":[
				0,
				0,
				-0.07549574971199036,
				0.9971461296081543
			],
			"translation":[
				15.186079978942871,
				0.3011045455932617,
				-19.835424423217773
			]
		},
		{
			"mesh":9,
			"name":"Cube.002",
			"rotation":[
				0,
				0,
				-0.07549574971199036,
				0.9971461296081543
			],
			"translation":[
				7.973186492919922,
				2.337972640991211,
				-19.773481369018555
			]
		},
		{
			"mesh":10,
			"name":"Cube.003",
			"translation":[
				15.32326602935791,
				-0.7483525276184082,
				-23.454511642456055
			]
		},
		{
			"mesh":11,
			"name":"Cube.005",
			"translation":[
				5.676008224487305,
				3.05147123336792,
				-18.196321487426758
			]
		},
		{
			"mesh":12,
			"name":"Project Building.001",
			"translation":[
				-9.6922607421875,
				1.1391382217407227,
				-24.731800079345703
			]
		},
		{
			"mesh":13,
			"name":"Retopo_Text.003",
			"rotation":[
				0,
				-0.9484397768974304,
				0.3169574439525604,
				1.8466803908268048e-07
			],
			"translation":[
				-9.841033935546875,
				10.2174072265625,
				-26.91400909423828
			]
		},
		{
			"mesh":14,
			"name":"Retopo_Text.004",
			"rotation":[
				0.22412274777889252,
				0.6706482172012329,
				-0.22412274777889252,
				0.6706482172012329
			],
			"translation":[
				-5.625570774078369,
				6.757730007171631,
				-24.731800079345703
			]
		},
		{
			"mesh":15,
			"name":"Water Plane"
		}
	],
	"materials":[
		{
			"doubleSided":true,
			"name":"Master Pallet",
			"pbrMetallicRoughness":{
				"baseColorTexture":{
					"index":0
				},
				"metallicFactor":0,
				"roughnessFactor":0.5
			}
		},
		{
			"doubleSided":true,
			"name":"TEXT.001",
			"pbrMetallicRoughness":{
				"baseColorFactor":[
					0,
					0,
					0,
					1
				],
				"metallicFactor":0,
				"roughnessFactor":0.5
			}
		}
	],
	"meshes":[
		{
			"name":"Circle.002",
			"primitives":[
				{
					"attributes":{
						"POSITION":0,
						"NORMAL":1,
						"TEXCOORD_0":2
					},
					"indices":3,
					"material":0
				}
			]
		},
		{
			"name":"Circle.003",
			"primitives":[
				{
					"attributes":{
						"POSITION":4,
						"NORMAL":5,
						"TEXCOORD_0":6
					},
					"indices":7,
					"material":0
				}
			]
		},
		{
			"name":"Sphere.001",
			"primitives":[
				{
					"attributes":{
						"POSITION":8,
						"NORMAL":9,
						"TEXCOORD_0":10
					},
					"indices":11,
					"material":0
				}
			]
		},
		{
			"name":"Cube.001",
			"primitives":[
				{
					"attributes":{
						"POSITION":12,
						"NORMAL":13,
						"TEXCOORD_0":14
					},
					"indices":15,
					"material":0
				}
			]
		},
		{
			"name":"mesh.002",
			"primitives":[
				{
					"attributes":{
						"POSITION":16,
						"NORMAL":17
					},
					"indices":18,
					"material":1
				}
			]
		},
		{
			"name":"Sphere.006",
			"primitives":[
				{
					"attributes":{
						"POSITION":19,
						"NORMAL":20,
						"TEXCOORD_0":21
					},
					"indices":22,
					"material":0
				}
			]
		},
		{
			"name":"mesh.001",
			"primitives":[
				{
					"attributes":{
						"POSITION":23,
						"NORMAL":24
					},
					"indices":18,
					"material":1
				}
			]
		},
		{
			"name":"Cube",
			"primitives":[
				{
					"attributes":{
						"COLOR_0":25,
						"POSITION":26,
						"NORMAL":27,
						"TEXCOORD_0":28
					},
					"indices":29,
					"material":0
				}
			]
		},
		{
			"name":"Cube.003",
			"primitives":[
				{
					"attributes":{
						"COLOR_0":30,
						"POSITION":31,
						"NORMAL":32,
						"TEXCOORD_0":33
					},
					"indices":34,
					"material":0
				}
			]
		},
		{
			"name":"Cube.004",
			"primitives":[
				{
					"attributes":{
						"POSITION":35,
						"NORMAL":36,
						"TEXCOORD_0":37
					},
					"indices":38,
					"material":0
				}
			]
		},
		{
			"name":"Cube.006",
			"primitives":[
				{
					"attributes":{
						"POSITION":39,
						"NORMAL":40,
						"TEXCOORD_0":41
					},
					"indices":42,
					"material":0
				}
			]
		},
		{
			"name":"Cube.008",
			"primitives":[
				{
					"attributes":{
						"POSITION":43,
						"NORMAL":44,
						"TEXCOORD_0":45
					},
					"indices":46,
					"material":0
				}
			]
		},
		{
			"name":"Cube.010",
			"primitives":[
				{
					"attributes":{
						"POSITION":47,
						"NORMAL":48,
						"TEXCOORD_0":49
					},
					"indices":15,
					"material":0
				}
			]
		},
		{
			"name":"mesh.003",
			"primitives":[
				{
					"attributes":{
						"POSITION":50,
						"NORMAL":51
					},
					"indices":52,
					"material":1
				}
			]
		},
		{
			"name":"mesh.004",
			"primitives":[
				{
					"attributes":{
						"POSITION":53,
						"NORMAL":54
					},
					"indices":55,
					"material":1
				}
			]
		},
		{
			"name":"Plane.002",
			"primitives":[
				{
					"attributes":{
						"COLOR_0":56,
						"POSITION":57,
						"NORMAL":58,
						"TEXCOORD_0":59
					},
					"indices":60,
					"material":0
				}
			]
		}
	],
	"textures":[
		{
			"sampler":0,
			"source":0
		}
	],
	"images":[
		{
			"mimeType":"image/png",
			"name":"256-Gradient",
			"uri":"256-Gradient.png"
		}
	],
	"accessors":[
		{
			"bufferView":0,
			"componentType":5126,
			"count":384,
			"max":[
				5.681204319000244,
				4.450660705566406,
				5.681206703186035
			],
			"min":[
				-5.681207180023193,
				-11.414311408996582,
				-5.681204319000244
			],
			"type":"VEC3"
		},
		{
			"bufferView":1,
			"componentType":5126,
			"count":384,
			"type":"VEC3"
		},
		{
			"bufferView":2,
			"componentType":5126,
			"count":384,
			"type":"VEC2"
		},
		{
			"bufferView":3,
			"componentType":5123,
			"count":1140,
			"type":"SCALAR"
		},
		{
			"bufferView":4,
			"componentType":5126,
			"count":891,
			"max":[
				2.7506070137023926,
				4.289231300354004,
				2.7506067752838135
			],
			"min":[
				-2.750608444213867,
				-4.508020877838135,
				-2.717578172683716
			],
			"type":"VEC3"
		},
		{
			"bufferView":5,
			"componentType":5126,
			"count":891,
			"type":"VEC3"
		},
		{
			"bufferView":6,
			"componentType":5126,
			"count":891,
			"type":"VEC2"
		},
		{
			"bufferView":7,
			"componentType":5123,
			"count":4704,
			"type":"SCALAR"
		},
		{
			"bufferView":8,
			"componentType":5126,
			"count":323,
			"max":[
				13.071147918701172,
				5.826714515686035,
				47.43970489501953
			],
			"min":[
				-18.747461318969727,
				-0.07326507568359375,
				2.880504608154297
			],
			"type":"VEC3"
		},
		{
			"bufferView":9,
			"componentType":5126,
			"count":323,
			"type":"VEC3"
		},
		{
			"bufferView":10,
			"componentType":5126,
			"count":323,
			"type":"VEC2"
		},
		{
			"bufferView":11,
			"componentType":5123,
			"count":1152,
			"type":"SCALAR"
		},
		{
			"bufferView":12,
			"componentType":5126,
			"count":68,
			"max":[
				-4.036169052124023,
				15.108043670654297,
				28.840375900268555
			],
			"min":[
				-11.876355171203613,
				4.51534366607666,
				21.00018882751465
			],
			"type":"VEC3"
		},
		{
			"bufferView":13,
			"componentType":5126,
			"count":68,
			"type":"VEC3"
		},
		{
			"bufferView":14,
			"componentType":5126,
			"count":68,
			"type":"VEC2"
		},
		{
			"bufferView":15,
			"componentType":5123,
			"count":144,
			"type":"SCALAR"
		},
		{
			"bufferView":16,
			"componentType":5126,
			"count":1587,
			"max":[
				11.423022270202637,
				-3.0625112056732178,
				-26.111297607421875
			],
			"min":[
				5.279598236083984,
				-3.156782627105713,
				-27.01376724243164
			],
			"type":"VEC3"
		},
		{
			"bufferView":17,
			"componentType":5126,
			"count":1587,
			"type":"VEC3"
		},
		{
			"bufferView":18,
			"componentType":5123,
			"count":9462,
			"type":"SCALAR"
		},
		{
			"bufferView":19,
			"componentType":5126,
			"count":805,
			"max":[
				15.909306526184082,
				5.899979591369629,
				15.903898239135742
			],
			"min":[
				-15.909302711486816,
				0,
				-15.903902053833008
			],
			"type":"VEC3"
		},
		{
			"bufferView":20,
			"componentType":5126,
			"count":805,
			"type":"VEC3"
		},
		{
			"bufferView":21,
			"componentType":5126,
			"count":805,
			"type":"VEC2"
		},
		{
			"bufferView":22,
			"componentType":5123,
			"count":1152,
			"type":"SCALAR"
		},
		{
			"bufferView":23,
			"componentType":5126,
			"count":1587,
			"max":[
				27.9180850982666,
				10.499876022338867,
				4.046086311340332
			],
			"min":[
				21.774662017822266,
				9.597386360168457,
				3.948901414871216
			],
			"type":"VEC3"
		},
		{
			"bufferView":24,
			"componentType":5126,
			"count":1587,
			"type":"VEC3"
		},
		{
			"bufferView":25,
			"componentType":5123,
			"count":122,
			"normalized":true,
			"type":"VEC4"
		},
		{
			"bufferView":26,
			"componentType":5126,
			"count":122,
			"max":[
				15.57701301574707,
				3.703840732574463,
				15.577009201049805
			],
			"min":[
				-10.065980911254883,
				-2.468144178390503,
				-1.95641028881073
			],
			"type":"VEC3"
		},
		{
			"bufferView":27,
			"componentType":5126,
			"count":122,
			"type":"VEC3"
		},
		{
			"bufferView":28,
			"componentType":5126,
			"count":122,
			"type":"VEC2"
		},
		{
			"bufferView":29,
			"componentType":5123,
			"count":228,
			"type":"SCALAR"
		},
		{
			"bufferView":30,
			"componentType":5123,
			"count":24,
			"normalized":true,
			"type":"VEC4"
		},
		{
			"bufferView":31,
			"componentType":5126,
			"count":24,
			"max":[
				7.40741491317749,
				0.9276082515716553,
				0.20315270125865936
			],
			"min":[
				-8.361620903015137,
				0.7337050437927246,
				-0.2637292742729187
			],
			"type":"VEC3"
		},
		{
			"bufferView":32,
			"componentType":5126,
			"count":24,
			"type":"VEC3"
		},
		{
			"bufferView":33,
			"componentType":5126,
			"count":24,
			"type":"VEC2"
		},
		{
			"bufferView":34,
			"componentType":5123,
			"count":36,
			"type":"SCALAR"
		},
		{
			"bufferView":35,
			"componentType":5126,
			"count":1260,
			"max":[
				14.487105369567871,
				1.6604597568511963,
				0.7585946917533875
			],
			"min":[
				-0.028687337413430214,
				-0.028687337413430214,
				-8.120655059814453
			],
			"type":"VEC3"
		},
		{
			"bufferView":36,
			"componentType":5126,
			"count":1260,
			"type":"VEC3"
		},
		{
			"bufferView":37,
			"componentType":5126,
			"count":1260,
			"type":"VEC2"
		},
		{
			"bufferView":38,
			"componentType":5123,
			"count":2184,
			"type":"SCALAR"
		},
		{
			"bufferView":39,
			"componentType":5126,
			"count":20,
			"max":[
				8.571831703186035,
				3.0922913551330566,
				4.165955066680908
			],
			"min":[
				-8.571828842163086,
				-1.8439973592758179,
				-4.165955543518066
			],
			"type":"VEC3"
		},
		{
			"bufferView":40,
			"componentType":5126,
			"count":20,
			"type":"VEC3"
		},
		{
			"bufferView":41,
			"componentType":5126,
			"count":20,
			"type":"VEC2"
		},
		{
			"bufferView":42,
			"componentType":5123,
			"count":30,
			"type":"SCALAR"
		},
		{
			"bufferView":43,
			"componentType":5126,
			"count":96,
			"max":[
				0.7880315780639648,
				2.479326009750366,
				0.7880315780639648
			],
			"min":[
				-1.3393665552139282,
				-0.9467637538909912,
				-11.304411888122559
			],
			"type":"VEC3"
		},
		{
			"bufferView":44,
			"componentType":5126,
			"count":96,
			"type":"VEC3"
		},
		{
			"bufferView":45,
			"componentType":5126,
			"count":96,
			"type":"VEC2"
		},
		{
			"bufferView":46,
			"componentType":5123,
			"count":144,
			"type":"SCALAR"
		},
		{
			"bufferView":47,
			"componentType":5126,
			"count":68,
			"max":[
				3.920093536376953,
				10.592700958251953,
				3.920093059539795
			],
			"min":[
				-3.9200925827026367,
				-5.841393999617139e-07,
				-3.920093059539795
			],
			"type":"VEC3"
		},
		{
			"bufferView":48,
			"componentType":5126,
			"count":68,
			"type":"VEC3"
		},
		{
			"bufferView":49,
			"componentType":5126,
			"count":68,
			"type":"VEC2"
		},
		{
			"bufferView":50,
			"componentType":5126,
			"count":4884,
			"max":[
				1.9459582567214966,
				0.051600709557533264,
				0.897574782371521
			],
			"min":[
				-1.9333473443984985,
				-0.0516369454562664,
				-0.8932009339332581
			],
			"type":"VEC3"
		},
		{
			"bufferView":51,
			"componentType":5126,
			"count":4884,
			"type":"VEC3"
		},
		{
			"bufferView":52,
			"componentType":5123,
			"count":7326,
			"type":"SCALAR"
		},
		{
			"bufferView":53,
			"componentType":5126,
			"count":4884,
			"max":[
				1.9459580183029175,
				0.6842860579490662,
				0.6129419207572937
			],
			"min":[
				-1.9333473443984985,
				-0.7871586680412292,
				-0.5248157978057861
			],
			"type":"VEC3"
		},
		{
			"bufferView":54,
			"componentType":5126,
			"count":4884,
			"type":"VEC3"
		},
		{
			"bufferView":55,
			"componentType":5123,
			"count":7326,
			"type":"SCALAR"
		},
		{
			"bufferView":56,
			"componentType":5123,
			"count":20,
			"normalized":true,
			"type":"VEC4"
		},
		{
			"bufferView":57,
			"componentType":5126,
			"count":20,
			"max":[
				357.74298095703125,
				76.73593139648438,
				385.7412109375
			],
			"min":[
				-363.41925048828125,
				0.08686637878417969,
				-335.4210205078125
			],
			"type":"VEC3"
		},
		{
			"bufferView":58,
			"componentType":5126,
			"count":20,
			"type":"VEC3"
		},
		{
			"bufferView":59,
			"componentType":5126,
			"count":20,
			"type":"VEC2"
		},
		{
			"bufferView":60,
			"componentType":5123,
			"count":30,
			"type":"SCALAR"
		}
	],
	"bufferViews":[
		{
			"buffer":0,
			"byteLength":4608,
			"byteOffset":0,
			"target":34962
		},
		{
			"buffer":0,
			"byteLength":4608,
			"byteOffset":4608,
			"target":34962
		},
		{
			"buffer":0,
			"byteLength":3072,
			"byteOffset":9216,
			"target":34962
		},
		{
			"buffer":0,
			"byteLength":2280,
			"byteOffset":12288,
			"target":34963
		},
		{
			"buffer":0,
			"byteLength":10692,
			"byteOffset":14568,
			"target":34962
		},
		{
			"buffer":0,
			"byteLength":10692,
			"byteOffset":25260,
			"target":34962
		},
		{
			"buffer":0,
			"byteLength":7128,
			"byteOffset":35952,
			"target":34962
		},
		{
			"buffer":0,
			"byteLength":9408,
			"byteOffset":43080,
			"target":34963
		},
		{
			"buffer":0,
			"byteLength":3876,
			"byteOffset":52488,
			"target":34962
		},
		{
			"buffer":0,
			"byteLength":3876,
			"byteOffset":56364,
			"target":34962
		},
		{
			"buffer":0,
			"byteLength":2584,
			"byteOffset":60240,
			"target":34962
		},
		{
			"buffer":0,
			"byteLength":2304,
			"byteOffset":62824,
			"target":34963
		},
		{
			"buffer":0,
			"byteLength":816,
			"byteOffset":65128,
			"target":34962
		},
		{
			"buffer":0,
			"byteLength":816,
			"byteOffset":65944,
			"target":34962
		},
		{
			"buffer":0,
			"byteLength":544,
			"byteOffset":66760,
			"target":34962
		},
		{
			"buffer":0,
			"byteLength":288,
			"byteOffset":67304,
			"target":34963
		},
		{
			"buffer":0,
			"byteLength":19044,
			"byteOffset":67592,
			"target":34962
		},
		{
			"buffer":0,
			"byteLength":19044,
			"byteOffset":86636,
			"target":34962
		},
		{
			"buffer":0,
			"byteLength":18924,
			"byteOffset":105680,
			"target":34963
		},
		{
			"buffer":0,
			"byteLength":9660,
			"byteOffset":124604,
			"target":34962
		},
		{
			"buffer":0,
			"byteLength":9660,
			"byteOffset":134264,
			"target":34962
		},
		{
			"buffer":0,
			"byteLength":6440,
			"byteOffset":143924,
			"target":34962
		},
		{
			"buffer":0,
			"byteLength":2304,
			"byteOffset":150364,
			"target":34963
		},
		{
			"buffer":0,
			"byteLength":19044,
			"byteOffset":152668,
			"target":34962
		},
		{
			"buffer":0,
			"byteLength":19044,
			"byteOffset":171712,
			"target":34962
		},
		{
			"buffer":0,
			"byteLength":976,
			"byteOffset":190756,
			"target":34962
		},
		{
			"buffer":0,
			"byteLength":1464,
			"byteOffset":191732,
			"target":34962
		},
		{
			"buffer":0,
			"byteLength":1464,
			"byteOffset":193196,
			"target":34962
		},
		{
			"buffer":0,
			"byteLength":976,
			"byteOffset":194660,
			"target":34962
		},
		{
			"buffer":0,
			"byteLength":456,
			"byteOffset":195636,
			"target":34963
		},
		{
			"buffer":0,
			"byteLength":192,
			"byteOffset":196092,
			"target":34962
		},
		{
			"buffer":0,
			"byteLength":288,
			"byteOffset":196284,
			"target":34962
		},
		{
			"buffer":0,
			"byteLength":288,
			"byteOffset":196572,
			"target":34962
		},
		{
			"buffer":0,
			"byteLength":192,
			"byteOffset":196860,
			"target":34962
		},
		{
			"buffer":0,
			"byteLength":72,
			"byteOffset":197052,
			"target":34963
		},
		{
			"buffer":0,
			"byteLength":15120,
			"byteOffset":197124,
			"target":34962
		},
		{
			"buffer":0,
			"byteLength":15120,
			"byteOffset":212244,
			"target":34962
		},
		{
			"buffer":0,
			"byteLength":10080,
			"byteOffset":227364,
			"target":34962
		},
		{
			"buffer":0,
			"byteLength":4368,
			"byteOffset":237444,
			"target":34963
		},
		{
			"buffer":0,
			"byteLength":240,
			"byteOffset":241812,
			"target":34962
		},
		{
			"buffer":0,
			"byteLength":240,
			"byteOffset":242052,
			"target":34962
		},
		{
			"buffer":0,
			"byteLength":160,
			"byteOffset":242292,
			"target":34962
		},
		{
			"buffer":0,
			"byteLength":60,
			"byteOffset":242452,
			"target":34963
		},
		{
			"buffer":0,
			"byteLength":1152,
			"byteOffset":242512,
			"target":34962
		},
		{
			"buffer":0,
			"byteLength":1152,
			"byteOffset":243664,
			"target":34962
		},
		{
			"buffer":0,
			"byteLength":768,
			"byteOffset":244816,
			"target":34962
		},
		{
			"buffer":0,
			"byteLength":288,
			"byteOffset":245584,
			"target":34963
		},
		{
			"buffer":0,
			"byteLength":816,
			"byteOffset":245872,
			"target":34962
		},
		{
			"buffer":0,
			"byteLength":816,
			"byteOffset":246688,
			"target":34962
		},
		{
			"buffer":0,
			"byteLength":544,
			"byteOffset":247504,
			"target":34962
		},
		{
			"buffer":0,
			"byteLength":58608,
			"byteOffset":248048,
			"target":34962
		},
		{
			"buffer":0,
			"byteLength":58608,
			"byteOffset":306656,
			"target":34962
		},
		{
			"buffer":0,
			"byteLength":14652,
			"byteOffset":365264,
			"target":34963
		},
		{
			"buffer":0,
			"byteLength":58608,
			"byteOffset":379916,
			"target":34962
		},
		{
			"buffer":0,
			"byteLength":58608,
			"byteOffset":438524,
			"target":34962
		},
		{
			"buffer":0,
			"byteLength":14652,
			"byteOffset":497132,
			"target":34963
		},
		{
			"buffer":0,
			"byteLength":160,
			"byteOffset":511784,
			"target":34962
		},
		{
			"buffer":0,
			"byteLength":240,
			"byteOffset":511944,
			"target":34962
		},
		{
			"buffer":0,
			"byteLength":240,
			"byteOffset":512184,
			"target":34962
		},
		{
			"buffer":0,
			"byteLength":160,
			"byteOffset":512424,
			"target":34962
		},
		{
			"buffer":0,
			"byteLength":60,
			"byteOffset":512584,
			"target":34963
		}
	],
	"samplers":[
		{
			"magFilter":9729,
			"minFilter":9987
		}
	],
	"buffers":[
		{
			"byteLength":512644,
			"uri":"Islands.bin"
		}
	]
}
